# xmcd CD database file
#
# Track frame offsets:
#	150
#	17369
#	33967
#	47517
#	63884
#	80868
#	96796
#	110707
#	124687
#	142025
#	157424
#	171281
#	186406
#	204049
#	220402
#	237520
#	256971
#
# Disc length: 3775 seconds
#
# Revision: 2
# Processed by: cddbd v1.5.2PL0 Copyright (c) Steve Scherf et al.
# Submitted via: CDex 1.51
#
DISCID=f40ebd11
DTITLE=Various Artist - Selecta Track-MBM
DYEAR=1900
DGENRE=Blues
TTITLE0=Michael Buble Ft  - After All
TTITLE1=Michael Buble - Closer Your Eyes
TTITLE2=Michael Buble - Come Dance With Me
TTITLE3=Michael Buble and Naturally 7 - Have I Told You Lately That I Love You
TTITLE4=Michael Buble - I Got It Easy
TTITLE5=Michael Buble - It's A Beautiful Day
TTITLE6=Michael Buble Ft The Puppini Sist - Nevertheless (i'm in love with you)
TTITLE7=Michael Buble Ft Reese Withe - Something Stupid
TTITLE8=Michael Buble - To Be Loved
TTITLE9=Michael Buble - To Love Somebody
TTITLE10=Michael Buble - Who's Lovin' You
TTITLE11=Michael Buble - You Make Me Feel So Young
TTITLE12=Michael Buble - Young At Heart
TTITLE13=Michael Buble - You've Got A Friend In Me
TTITLE14=Soft Cell - Soft Cell Medley
TTITLE15=Madness - Madness Medley
TTITLE16=T Rex - T Rex Medley
EXTD=
EXTT0=
EXTT1=
EXTT2=
EXTT3=
EXTT4=
EXTT5=
EXTT6=
EXTT7=
EXTT8=
EXTT9=
EXTT10=
EXTT11=
EXTT12=
EXTT13=
EXTT14=
EXTT15=
EXTT16=
PLAYORDER=
